# xmcd
#
# Track frame offsets:
#	150
#	14652
#	30742
#	56296
#	74686
#	93807
#	109200
#	127711
#	141650
#	164146
#	175504
#	188214
#	205362
#
# Disc length: 2975 seconds
#
# Revision: 0
# Processed by: cddbd v1.4PL0 Copyright (c) Steve Scherf et al.
# Submitted via: audiograbber 1.81.02
#
DISCID=bc0b9d0d
DTITLE=The Livin' Blues Band - Got Me Crazy
DYEAR=2000
DGENRE=Blues
TTITLE0=Nevada
TTITLE1=All We Get
TTITLE2=Got Me Crazy
TTITLE3=Comin' Down
TTITLE4=Enough For Everyone
TTITLE5=Rock My World
TTITLE6=Married Man
TTITLE7=Past Midnight
TTITLE8=Lost and Found Blues
TTITLE9=Can't Let Go
TTITLE10=Party On
TTITLE11=Say A Prayer
TTITLE12=Road Kill
EXTD=
EXTT0=
EXTT1=
EXTT2=
EXTT3=
EXTT4=
EXTT5=
EXTT6=
EXTT7=
EXTT8=
EXTT9=
EXTT10=
EXTT11=
EXTT12=
PLAYORDER=
